<svg width="533" height="54" viewBox="0 0 533 54" fill="none" xmlns="http://www.w3.org/2000/svg">
<path d="M28.8392 39.3186C28.8392 38.501 28.7186 37.7675 28.4773 37.1182C28.2361 36.4449 27.7898 35.8196 27.1385 35.2425C26.4872 34.6653 25.5464 34.0882 24.3161 33.511C23.1099 32.9098 21.5178 32.2846 19.5397 31.6353C17.2239 30.8657 14.9925 30 12.8456 29.0381C10.6986 28.0521 8.78081 26.9098 7.09219 25.6112C5.40358 24.2886 4.06474 22.7495 3.0757 20.994C2.08665 19.2144 1.59212 17.1463 1.59212 14.7896C1.59212 12.5291 2.09871 10.497 3.11188 8.69339C4.12505 6.86573 5.53625 5.31463 7.34549 4.04008C9.17884 2.74148 11.3258 1.75551 13.7864 1.08216C16.2469 0.38477 18.9366 0.0360721 21.8555 0.0360721C25.7152 0.0360721 29.1166 0.709419 32.0596 2.05611C35.0267 3.37876 37.3426 5.26653 39.0071 7.71944C40.6957 10.1483 41.54 13.022 41.54 16.3407H28.9115C28.9115 15.018 28.6341 13.8517 28.0793 12.8417C27.5486 11.8317 26.7405 11.0381 25.6549 10.4609C24.5694 9.88377 23.2064 9.59519 21.5661 9.59519C19.9739 9.59519 18.6351 9.83567 17.5496 10.3166C16.464 10.7976 15.6438 11.4469 15.089 12.2645C14.5342 13.0581 14.2568 13.9359 14.2568 14.8978C14.2568 15.6914 14.4739 16.4128 14.9081 17.0621C15.3664 17.6874 16.0057 18.2766 16.8259 18.8297C17.6702 19.3828 18.6833 19.9118 19.8654 20.4168C21.0715 20.9218 22.4224 21.4148 23.9181 21.8958C26.7163 22.7856 29.201 23.7836 31.3721 24.8898C33.5673 25.9719 35.4127 27.2104 36.9084 28.6052C38.4281 29.976 39.574 31.5391 40.3459 33.2946C41.142 35.0501 41.54 37.0341 41.54 39.2465C41.54 41.6032 41.0816 43.6954 40.165 45.523C39.2483 47.3507 37.9336 48.9018 36.2208 50.1764C34.5081 51.4269 32.4576 52.3768 30.0695 53.0261C27.6813 53.6754 25.0157 54 22.0726 54C19.3709 54 16.7053 53.6633 14.0758 52.99C11.4705 52.2926 9.10647 51.2345 6.98364 49.8156C4.86081 48.3727 3.16013 46.5331 1.8816 44.2966C0.627201 42.0361 0 39.3547 0 36.2525H12.737C12.737 37.7916 12.942 39.0902 13.3521 40.1483C13.7622 41.2064 14.3653 42.0601 15.1614 42.7094C15.9574 43.3347 16.9344 43.7916 18.0923 44.0802C19.2502 44.3447 20.577 44.477 22.0726 44.477C23.6889 44.477 24.9915 44.2485 25.9806 43.7916C26.9696 43.3106 27.6933 42.6854 28.1517 41.9158C28.61 41.1222 28.8392 40.2565 28.8392 39.3186Z" fill="url(#paint0_linear_1008_4704)"/>
<path d="M76.6102 0.757515V53.2786H63.9093V0.757515H76.6102ZM92.459 0.757515V10.5331H48.4223V0.757515H92.459Z" fill="url(#paint1_linear_1008_4704)"/>
<path d="M118.773 11.7956L105.927 53.2786H92.2853L111.644 0.757515H120.292L118.773 11.7956ZM129.411 53.2786L116.529 11.7956L114.865 0.757515H123.621L143.089 53.2786H129.411ZM128.904 33.6914V43.4669H101.874V33.6914H128.904Z" fill="url(#paint2_linear_1008_4704)"/>
<path d="M171.139 0.757515V53.2786H158.438V0.757515H171.139ZM186.988 0.757515V10.5331H142.951V0.757515H186.988Z" fill="url(#paint3_linear_1008_4704)"/>
<path d="M223.976 0.757515H236.677V35.0621C236.677 39.1503 235.82 42.6132 234.107 45.4509C232.395 48.2645 229.994 50.3928 226.907 51.8357C223.819 53.2786 220.188 54 216.015 54C211.89 54 208.26 53.2786 205.124 51.8357C202.012 50.3928 199.575 48.2645 197.814 45.4509C196.077 42.6132 195.209 39.1503 195.209 35.0621V0.757515H207.946V35.0621C207.946 37.2265 208.26 38.994 208.887 40.3647C209.514 41.7114 210.431 42.6974 211.637 43.3226C212.843 43.9479 214.302 44.2605 216.015 44.2605C217.752 44.2605 219.211 43.9479 220.394 43.3226C221.576 42.6974 222.468 41.7114 223.071 40.3647C223.674 38.994 223.976 37.2265 223.976 35.0621V0.757515Z" fill="url(#paint4_linear_1008_4704)"/>
<path d="M274.822 39.3186C274.822 38.501 274.702 37.7675 274.461 37.1182C274.219 36.4449 273.773 35.8196 273.122 35.2425C272.47 34.6653 271.53 34.0882 270.299 33.511C269.093 32.9098 267.501 32.2846 265.523 31.6353C263.207 30.8657 260.976 30 258.829 29.0381C256.682 28.0521 254.764 26.9098 253.075 25.6112C251.387 24.2886 250.048 22.7495 249.059 20.994C248.07 19.2144 247.575 17.1463 247.575 14.7896C247.575 12.5291 248.082 10.497 249.095 8.69339C250.108 6.86573 251.52 5.31463 253.329 4.04008C255.162 2.74148 257.309 1.75551 259.77 1.08216C262.23 0.38477 264.92 0.0360721 267.839 0.0360721C271.699 0.0360721 275.1 0.709419 278.043 2.05611C281.01 3.37876 283.326 5.26653 284.99 7.71944C286.679 10.1483 287.523 13.022 287.523 16.3407H274.895C274.895 15.018 274.617 13.8517 274.063 12.8417C273.532 11.8317 272.724 11.0381 271.638 10.4609C270.553 9.88377 269.19 9.59519 267.549 9.59519C265.957 9.59519 264.618 9.83567 263.533 10.3166C262.447 10.7976 261.627 11.4469 261.072 12.2645C260.517 13.0581 260.24 13.9359 260.24 14.8978C260.24 15.6914 260.457 16.4128 260.891 17.0621C261.35 17.6874 261.989 18.2766 262.809 18.8297C263.653 19.3828 264.667 19.9118 265.849 20.4168C267.055 20.9218 268.406 21.4148 269.901 21.8958C272.7 22.7856 275.184 23.7836 277.355 24.8898C279.551 25.9719 281.396 27.2104 282.892 28.6052C284.411 29.976 285.557 31.5391 286.329 33.2946C287.125 35.0501 287.523 37.0341 287.523 39.2465C287.523 41.6032 287.065 43.6954 286.148 45.523C285.232 47.3507 283.917 48.9018 282.204 50.1764C280.491 51.4269 278.441 52.3768 276.053 53.0261C273.665 53.6754 270.999 54 268.056 54C265.354 54 262.689 53.6633 260.059 52.99C257.454 52.2926 255.09 51.2345 252.967 49.8156C250.844 48.3727 249.143 46.5331 247.865 44.2966C246.611 42.0361 245.983 39.3547 245.983 36.2525H258.72C258.72 37.7916 258.925 39.0902 259.335 40.1483C259.746 41.2064 260.349 42.0601 261.145 42.7094C261.941 43.3347 262.918 43.7916 264.076 44.0802C265.234 44.3447 266.56 44.477 268.056 44.477C269.672 44.477 270.975 44.2485 271.964 43.7916C272.953 43.3106 273.677 42.6854 274.135 41.9158C274.593 41.1222 274.822 40.2565 274.822 39.3186Z" fill="url(#paint5_linear_1008_4704)"/>
<path d="M318.107 35.4589H305.008V25.6834H318.107C319.892 25.6834 321.339 25.3828 322.449 24.7816C323.558 24.1804 324.367 23.3507 324.873 22.2926C325.404 21.2104 325.669 19.996 325.669 18.6493C325.669 17.2064 325.404 15.8717 324.873 14.6453C324.367 13.4188 323.558 12.4329 322.449 11.6874C321.339 10.9178 319.892 10.5331 318.107 10.5331H309.784V53.2786H297.083V0.757515H318.107C322.328 0.757515 325.959 1.52705 328.998 3.06613C332.062 4.60521 334.414 6.72144 336.054 9.41483C337.695 12.0842 338.515 15.1383 338.515 18.5772C338.515 21.9679 337.695 24.9259 336.054 27.4509C334.414 29.976 332.062 31.9479 328.998 33.3667C325.959 34.7615 322.328 35.4589 318.107 35.4589Z" fill="url(#paint6_linear_1008_4704)"/>
<path d="M383.174 43.5391V53.2786H356.542V43.5391H383.174ZM361.065 0.757515V53.2786H348.364V0.757515H361.065Z" fill="url(#paint7_linear_1008_4704)"/>
<path d="M414.589 11.7956L401.744 53.2786H388.102L407.461 0.757515H416.109L414.589 11.7956ZM425.228 53.2786L412.346 11.7956L410.681 0.757515H419.438L438.905 53.2786H425.228ZM424.721 33.6914V43.4669H397.691V33.6914H424.721Z" fill="url(#paint8_linear_1008_4704)"/>
<path d="M474.953 35.495H487.617C487.448 39.1503 486.459 42.3727 484.65 45.1623C482.841 47.9519 480.332 50.1283 477.124 51.6914C473.939 53.2305 470.176 54 465.834 54C462.312 54 459.164 53.4108 456.39 52.2325C453.64 51.0541 451.3 49.3587 449.37 47.1463C447.464 44.9339 446.005 42.2525 444.992 39.1022C444.003 35.9519 443.508 32.4048 443.508 28.4609V25.6112C443.508 21.6673 444.027 18.1202 445.064 14.9699C446.125 11.7956 447.621 9.1022 449.551 6.88978C451.505 4.65331 453.845 2.94589 456.571 1.76754C459.297 0.589178 462.324 0 465.653 0C470.237 0 474.108 0.817635 477.268 2.45291C480.429 4.08818 482.877 6.33667 484.614 9.1984C486.351 12.0361 487.376 15.2705 487.69 18.9018H475.025C474.977 16.9299 474.639 15.2826 474.012 13.9599C473.385 12.6132 472.396 11.6032 471.045 10.9299C469.694 10.2565 467.897 9.91984 465.653 9.91984C464.085 9.91984 462.722 10.2084 461.564 10.7856C460.406 11.3627 459.441 12.2766 458.669 13.5271C457.898 14.7776 457.319 16.4008 456.933 18.3968C456.571 20.3687 456.39 22.7495 456.39 25.5391V28.4609C456.39 31.2505 456.559 33.6313 456.896 35.6032C457.234 37.5752 457.777 39.1864 458.525 40.4369C459.273 41.6874 460.237 42.6132 461.42 43.2144C462.626 43.7916 464.097 44.0802 465.834 44.0802C467.764 44.0802 469.392 43.7796 470.719 43.1784C472.046 42.5531 473.071 41.6152 473.795 40.3647C474.518 39.0902 474.904 37.4669 474.953 35.495Z" fill="url(#paint9_linear_1008_4704)"/>
<path d="M532.891 43.5391V53.2786H504.812V43.5391H532.891ZM509.335 0.757515V53.2786H496.634V0.757515H509.335ZM529.273 21.6072V31.022H504.812V21.6072H529.273ZM533 0.757515V10.5331H504.812V0.757515H533Z" fill="url(#paint10_linear_1008_4704)"/>
<defs>
<linearGradient id="paint0_linear_1008_4704" x1="3.47476e-06" y1="27" x2="533" y2="27.0001" gradientUnits="userSpaceOnUse">
<stop stop-color="#5D5BC9"/>
<stop offset="1" stop-color="#CE2A79"/>
</linearGradient>
<linearGradient id="paint1_linear_1008_4704" x1="3.47476e-06" y1="27" x2="533" y2="27.0001" gradientUnits="userSpaceOnUse">
<stop stop-color="#5D5BC9"/>
<stop offset="1" stop-color="#CE2A79"/>
</linearGradient>
<linearGradient id="paint2_linear_1008_4704" x1="3.47476e-06" y1="27" x2="533" y2="27.0001" gradientUnits="userSpaceOnUse">
<stop stop-color="#5D5BC9"/>
<stop offset="1" stop-color="#CE2A79"/>
</linearGradient>
<linearGradient id="paint3_linear_1008_4704" x1="3.47476e-06" y1="27" x2="533" y2="27.0001" gradientUnits="userSpaceOnUse">
<stop stop-color="#5D5BC9"/>
<stop offset="1" stop-color="#CE2A79"/>
</linearGradient>
<linearGradient id="paint4_linear_1008_4704" x1="3.47476e-06" y1="27" x2="533" y2="27.0001" gradientUnits="userSpaceOnUse">
<stop stop-color="#5D5BC9"/>
<stop offset="1" stop-color="#CE2A79"/>
</linearGradient>
<linearGradient id="paint5_linear_1008_4704" x1="3.47476e-06" y1="27" x2="533" y2="27.0001" gradientUnits="userSpaceOnUse">
<stop stop-color="#5D5BC9"/>
<stop offset="1" stop-color="#CE2A79"/>
</linearGradient>
<linearGradient id="paint6_linear_1008_4704" x1="3.47476e-06" y1="27" x2="533" y2="27.0001" gradientUnits="userSpaceOnUse">
<stop stop-color="#5D5BC9"/>
<stop offset="1" stop-color="#CE2A79"/>
</linearGradient>
<linearGradient id="paint7_linear_1008_4704" x1="3.47476e-06" y1="27" x2="533" y2="27.0001" gradientUnits="userSpaceOnUse">
<stop stop-color="#5D5BC9"/>
<stop offset="1" stop-color="#CE2A79"/>
</linearGradient>
<linearGradient id="paint8_linear_1008_4704" x1="3.47476e-06" y1="27" x2="533" y2="27.0001" gradientUnits="userSpaceOnUse">
<stop stop-color="#5D5BC9"/>
<stop offset="1" stop-color="#CE2A79"/>
</linearGradient>
<linearGradient id="paint9_linear_1008_4704" x1="3.47476e-06" y1="27" x2="533" y2="27.0001" gradientUnits="userSpaceOnUse">
<stop stop-color="#5D5BC9"/>
<stop offset="1" stop-color="#CE2A79"/>
</linearGradient>
<linearGradient id="paint10_linear_1008_4704" x1="3.47476e-06" y1="27" x2="533" y2="27.0001" gradientUnits="userSpaceOnUse">
<stop stop-color="#5D5BC9"/>
<stop offset="1" stop-color="#CE2A79"/>
</linearGradient>
</defs>
</svg>
